<svg xmlns="http://www.w3.org/2000/svg" version="1.1" xmlns:xlink="http://www.w3.org/1999/xlink" xmlns:svgjs="http://svgjs.dev/svgjs" width="2000" height="1247" viewBox="0 0 2000 1247"><g transform="matrix(1,0,0,1,-1.2121212121212466,0.504858299595071)"><svg viewBox="0 0 396 247" data-background-color="#29313a" preserveAspectRatio="xMidYMid meet" height="1247" width="2000" xmlns="http://www.w3.org/2000/svg" xmlns:xlink="http://www.w3.org/1999/xlink"><defs></defs><g id="tight-bounds" transform="matrix(1,0,0,1,0.2400000000000091,-0.09999999999999432)"><svg viewBox="0 0 395.52 247.2" height="247.2" width="395.52"><g><svg></svg></g><g><svg viewBox="0 0 395.52 247.2" height="247.2" width="395.52"><g transform="matrix(1.9088249059332716, 0, 0, 1.9088249059332716, 69.12621309374649, 1)"><svg xmlns="http://www.w3.org/2000/svg" xmlns:xlink="http://www.w3.org/1999/xlink" version="1.1" x="0" y="0" viewBox="17.440000534057617 23.984004974365234 134.77798461914062 128.45599365234375" enable-background="new 0 0 168 180" xml:space="preserve" height="128.45599365234375" width="134.77798461914062" class="icon-none" data-fill-palette-color="accent" id="none"><path d="M87.99 152.44c-35.414 0-64.227-28.812-64.227-64.228h8.067c0 30.966 25.192 56.16 56.159 56.16s56.161-25.194 56.161-56.16c0-30.966-25.194-56.16-56.161-56.16v-8.068c35.415 0 64.229 28.812 64.229 64.228S123.405 152.44 87.99 152.44z" fill="#8ee7a7" data-fill-palette-color="accent"></path><polygon points="17.44,94.521 27.798,79.617 38.154,94.521 " fill="#8ee7a7" data-fill-palette-color="accent"></polygon><path d="M87.599 41.246c-3.262 0-5.906 2.645-5.906 5.907v41.106c0 3.262 2.645 5.907 5.906 5.907s5.905-2.646 5.905-5.907V47.153C93.504 43.891 90.86 41.246 87.599 41.246z" fill="#8ee7a7" data-fill-palette-color="accent"></path><path d="M55.835 97.553c0.927 3.126 4.213 4.91 7.34 3.984l26.152-7.75c3.127-0.926 4.914-4.212 3.986-7.339-0.925-3.129-4.212-4.912-7.338-3.986l-26.152 7.75C56.695 91.137 54.909 94.424 55.835 97.553z" fill="#8ee7a7" data-fill-palette-color="accent"></path></svg></g><rect width="348.05760000000004" height="44.55980487296772" fill="#29313a" y="101.32009756351613" x="23.731199999999973" data-fill-palette-color="quaternary"></rect><g transform="matrix(1,0,0,1,39.55199999999999,108.46575948918056)"><svg viewBox="0 0 316.416 30.268481021638877" height="30.268481021638877" width="316.416"><g><svg viewBox="0 0 316.416 30.268481021638877" height="30.268481021638877" width="316.416"><g><svg viewBox="0 0 316.416 30.268481021638877" height="30.268481021638877" width="316.416"><g><svg viewBox="0 0 316.416 30.268481021638877" height="30.268481021638877" width="316.416"><g><svg viewBox="0 0 316.416 30.268481021638877" height="30.268481021638877" width="316.416"><g><svg viewBox="0 0 316.416 30.268481021638877" height="30.268481021638877" width="316.416"><g transform="matrix(1,0,0,1,0,0)"><svg width="316.416" viewBox="3.0999999046325684 -40.04999923706055 422.82000732421875 40.45000076293945" height="30.268481021638877" data-palette-color="#8ee7a7"><path d="M29.85-23.8Q29.85-20.75 28.45-18.23 27.05-15.7 24.15-14.15 21.25-12.6 16.95-12.6L16.95-12.6 11.65-12.6 11.65 0 3.1 0 3.1-35.1 16.95-35.1Q21.15-35.1 24.05-33.65 26.95-32.2 28.4-29.65 29.85-27.1 29.85-23.8L29.85-23.8ZM16.3-19.4Q18.75-19.4 19.95-20.55 21.15-21.7 21.15-23.8L21.15-23.8Q21.15-25.9 19.95-27.05 18.75-28.2 16.3-28.2L16.3-28.2 11.65-28.2 11.65-19.4 16.3-19.4ZM47 0.4Q42.9 0.4 39.62-1.35 36.35-3.1 34.47-6.35 32.6-9.6 32.6-13.95L32.6-13.95Q32.6-18.25 34.5-21.53 36.4-24.8 39.7-26.55 43-28.3 47.1-28.3L47.1-28.3Q51.2-28.3 54.5-26.55 57.8-24.8 59.7-21.53 61.6-18.25 61.6-13.95L61.6-13.95Q61.6-9.65 59.67-6.38 57.75-3.1 54.42-1.35 51.1 0.4 47 0.4L47 0.4ZM47-7Q49.45-7 51.17-8.8 52.9-10.6 52.9-13.95L52.9-13.95Q52.9-17.3 51.22-19.1 49.55-20.9 47.1-20.9L47.1-20.9Q44.6-20.9 42.95-19.13 41.3-17.35 41.3-13.95L41.3-13.95Q41.3-10.6 42.92-8.8 44.55-7 47-7L47-7ZM101.75-28.2Q106.95-28.2 110.02-25.05 113.09-21.9 113.09-16.3L113.09-16.3 113.09 0 104.59 0 104.59-15.15Q104.59-17.85 103.17-19.33 101.75-20.8 99.25-20.8L99.25-20.8Q96.75-20.8 95.32-19.33 93.9-17.85 93.9-15.15L93.9-15.15 93.9 0 85.4 0 85.4-15.15Q85.4-17.85 83.97-19.33 82.55-20.8 80.05-20.8L80.05-20.8Q77.55-20.8 76.12-19.33 74.7-17.85 74.7-15.15L74.7-15.15 74.7 0 66.14 0 66.14-27.9 74.7-27.9 74.7-24.4Q76-26.15 78.09-27.18 80.2-28.2 82.84-28.2L82.84-28.2Q86-28.2 88.47-26.85 90.95-25.5 92.34-23L92.34-23Q93.8-25.3 96.3-26.75 98.8-28.2 101.75-28.2L101.75-28.2ZM131.79 0.4Q127.69 0.4 124.42-1.35 121.14-3.1 119.27-6.35 117.39-9.6 117.39-13.95L117.39-13.95Q117.39-18.25 119.29-21.53 121.19-24.8 124.49-26.55 127.79-28.3 131.89-28.3L131.89-28.3Q135.99-28.3 139.29-26.55 142.59-24.8 144.49-21.53 146.39-18.25 146.39-13.95L146.39-13.95Q146.39-9.65 144.47-6.38 142.54-3.1 139.22-1.35 135.89 0.4 131.79 0.4L131.79 0.4ZM131.79-7Q134.24-7 135.97-8.8 137.69-10.6 137.69-13.95L137.69-13.95Q137.69-17.3 136.02-19.1 134.34-20.9 131.89-20.9L131.89-20.9Q129.39-20.9 127.74-19.13 126.09-17.35 126.09-13.95L126.09-13.95Q126.09-10.6 127.72-8.8 129.34-7 131.79-7L131.79-7ZM149.24-14Q149.24-18.3 150.87-21.55 152.49-24.8 155.29-26.55 158.09-28.3 161.54-28.3L161.54-28.3Q164.29-28.3 166.56-27.15 168.84-26 170.14-24.05L170.14-24.05 170.14-37 178.69-37 178.69 0 170.14 0 170.14-4Q168.94-2 166.72-0.8 164.49 0.4 161.54 0.4L161.54 0.4Q158.09 0.4 155.29-1.38 152.49-3.15 150.87-6.43 149.24-9.7 149.24-14L149.24-14ZM170.14-13.95Q170.14-17.15 168.37-19 166.59-20.85 164.04-20.85L164.04-20.85Q161.49-20.85 159.72-19.03 157.94-17.2 157.94-14L157.94-14Q157.94-10.8 159.72-8.93 161.49-7.05 164.04-7.05L164.04-7.05Q166.59-7.05 168.37-8.9 170.14-10.75 170.14-13.95L170.14-13.95ZM197.59 0.4Q193.49 0.4 190.21-1.35 186.94-3.1 185.06-6.35 183.19-9.6 183.19-13.95L183.19-13.95Q183.19-18.25 185.09-21.53 186.99-24.8 190.29-26.55 193.59-28.3 197.69-28.3L197.69-28.3Q201.79-28.3 205.09-26.55 208.39-24.8 210.29-21.53 212.19-18.25 212.19-13.95L212.19-13.95Q212.19-9.65 210.26-6.38 208.34-3.1 205.01-1.35 201.69 0.4 197.59 0.4L197.59 0.4ZM197.59-7Q200.04-7 201.76-8.8 203.49-10.6 203.49-13.95L203.49-13.95Q203.49-17.3 201.81-19.1 200.14-20.9 197.69-20.9L197.69-20.9Q195.19-20.9 193.54-19.13 191.89-17.35 191.89-13.95L191.89-13.95Q191.89-10.6 193.51-8.8 195.14-7 197.59-7L197.59-7ZM225.29-23.25Q226.79-25.55 229.04-26.88 231.29-28.2 234.04-28.2L234.04-28.2 234.04-19.15 231.69-19.15Q228.49-19.15 226.89-17.78 225.29-16.4 225.29-12.95L225.29-12.95 225.29 0 216.74 0 216.74-27.9 225.29-27.9 225.29-23.25ZM250.83 0.4Q246.73 0.4 243.46-1.35 240.18-3.1 238.31-6.35 236.43-9.6 236.43-13.95L236.43-13.95Q236.43-18.25 238.33-21.53 240.23-24.8 243.53-26.55 246.83-28.3 250.93-28.3L250.93-28.3Q255.03-28.3 258.33-26.55 261.63-24.8 263.53-21.53 265.43-18.25 265.43-13.95L265.43-13.95Q265.43-9.65 263.51-6.38 261.58-3.1 258.26-1.35 254.93 0.4 250.83 0.4L250.83 0.4ZM250.83-7Q253.28-7 255.01-8.8 256.73-10.6 256.73-13.95L256.73-13.95Q256.73-17.3 255.06-19.1 253.38-20.9 250.93-20.9L250.93-20.9Q248.43-20.9 246.78-19.13 245.13-17.35 245.13-13.95L245.13-13.95Q245.13-10.6 246.76-8.8 248.38-7 250.83-7L250.83-7ZM278.68-35.1L305.83-35.1 305.83-28.25 296.53-28.25 296.53 0 287.98 0 287.98-28.25 278.68-28.25 278.68-35.1ZM314.43-30.8Q312.18-30.8 310.75-32.13 309.33-33.45 309.33-35.4L309.33-35.4Q309.33-37.4 310.75-38.73 312.18-40.05 314.43-40.05L314.43-40.05Q316.63-40.05 318.05-38.73 319.48-37.4 319.48-35.4L319.48-35.4Q319.48-33.45 318.05-32.13 316.63-30.8 314.43-30.8L314.43-30.8ZM310.13-27.9L318.68-27.9 318.68 0 310.13 0 310.13-27.9ZM360.47-28.2Q365.67-28.2 368.75-25.05 371.82-21.9 371.82-16.3L371.82-16.3 371.82 0 363.32 0 363.32-15.15Q363.32-17.85 361.9-19.33 360.47-20.8 357.97-20.8L357.97-20.8Q355.47-20.8 354.05-19.33 352.62-17.85 352.62-15.15L352.62-15.15 352.62 0 344.12 0 344.12-15.15Q344.12-17.85 342.7-19.33 341.27-20.8 338.77-20.8L338.77-20.8Q336.27-20.8 334.85-19.33 333.42-17.85 333.42-15.15L333.42-15.15 333.42 0 324.87 0 324.87-27.9 333.42-27.9 333.42-24.4Q334.72-26.15 336.82-27.18 338.92-28.2 341.57-28.2L341.57-28.2Q344.72-28.2 347.2-26.85 349.67-25.5 351.07-23L351.07-23Q352.52-25.3 355.02-26.75 357.52-28.2 360.47-28.2L360.47-28.2ZM404.12-14.4Q404.12-13.2 403.97-11.9L403.97-11.9 384.62-11.9Q384.82-9.3 386.3-7.93 387.77-6.55 389.92-6.55L389.92-6.55Q393.12-6.55 394.37-9.25L394.37-9.25 403.47-9.25Q402.77-6.5 400.95-4.3 399.12-2.1 396.37-0.85 393.62 0.4 390.22 0.4L390.22 0.4Q386.12 0.4 382.92-1.35 379.72-3.1 377.92-6.35 376.12-9.6 376.12-13.95L376.12-13.95Q376.12-18.3 377.9-21.55 379.67-24.8 382.87-26.55 386.07-28.3 390.22-28.3L390.22-28.3Q394.27-28.3 397.42-26.6 400.57-24.9 402.35-21.75 404.12-18.6 404.12-14.4L404.12-14.4ZM384.67-16.65L395.37-16.65Q395.37-18.85 393.87-20.15 392.37-21.45 390.12-21.45L390.12-21.45Q387.97-21.45 386.5-20.2 385.02-18.95 384.67-16.65L384.67-16.65ZM417.17-23.25Q418.67-25.55 420.92-26.88 423.17-28.2 425.92-28.2L425.92-28.2 425.92-19.15 423.57-19.15Q420.37-19.15 418.77-17.78 417.17-16.4 417.17-12.95L417.17-12.95 417.17 0 408.62 0 408.62-27.9 417.17-27.9 417.17-23.25Z" opacity="1" transform="matrix(1,0,0,1,0,0)" fill="#8ee7a7" class="undefined-text-0" data-fill-palette-color="primary" id="text-0"></path></svg></g></svg></g></svg></g></svg></g><g></g></svg></g></svg></g></svg></g></svg></g></svg><rect width="395.52" height="247.2" fill="none" stroke="none" visibility="hidden"></rect></g></svg></g></svg>